<?xml version="1.0" encoding="utf-8"?>
<svg xmlns="http://www.w3.org/2000/svg" xmlns:xlink="http://www.w3.org/1999/xlink" style="margin: auto; background: none; display: block; shape-rendering: auto;" width="211px" height="211px" viewBox="0 0 100 100" preserveAspectRatio="xMidYMid">
<g transform="rotate(0 50 50)">
  <rect x="49" y="28.5" rx="0.63" ry="0.63" width="2" height="7" fill="#22c55e">
    <animate attributeName="opacity" values="1;0" keyTimes="0;1" dur="1.1363636363636365s" begin="-1.0732323232323233s" repeatCount="indefinite"></animate>
  </rect>
</g><g transform="rotate(20 50 50)">
  <rect x="49" y="28.5" rx="0.63" ry="0.63" width="2" height="7" fill="#22c55e">
    <animate attributeName="opacity" values="1;0" keyTimes="0;1" dur="1.1363636363636365s" begin="-1.0101010101010102s" repeatCount="indefinite"></animate>
  </rect>
</g><g transform="rotate(40 50 50)">
  <rect x="49" y="28.5" rx="0.63" ry="0.63" width="2" height="7" fill="#22c55e">
    <animate attributeName="opacity" values="1;0" keyTimes="0;1" dur="1.1363636363636365s" begin="-0.946969696969697s" repeatCount="indefinite"></animate>
  </rect>
</g><g transform="rotate(60 50 50)">
  <rect x="49" y="28.5" rx="0.63" ry="0.63" width="2" height="7" fill="#22c55e">
    <animate attributeName="opacity" values="1;0" keyTimes="0;1" dur="1.1363636363636365s" begin="-0.8838383838383839s" repeatCount="indefinite"></animate>
  </rect>
</g><g transform="rotate(80 50 50)">
  <rect x="49" y="28.5" rx="0.63" ry="0.63" width="2" height="7" fill="#22c55e">
    <animate attributeName="opacity" values="1;0" keyTimes="0;1" dur="1.1363636363636365s" begin="-0.8207070707070707s" repeatCount="indefinite"></animate>
  </rect>
</g><g transform="rotate(100 50 50)">
  <rect x="49" y="28.5" rx="0.63" ry="0.63" width="2" height="7" fill="#22c55e">
    <animate attributeName="opacity" values="1;0" keyTimes="0;1" dur="1.1363636363636365s" begin="-0.7575757575757576s" repeatCount="indefinite"></animate>
  </rect>
</g><g transform="rotate(120 50 50)">
  <rect x="49" y="28.5" rx="0.63" ry="0.63" width="2" height="7" fill="#22c55e">
    <animate attributeName="opacity" values="1;0" keyTimes="0;1" dur="1.1363636363636365s" begin="-0.6944444444444444s" repeatCount="indefinite"></animate>
  </rect>
</g><g transform="rotate(140 50 50)">
  <rect x="49" y="28.5" rx="0.63" ry="0.63" width="2" height="7" fill="#22c55e">
    <animate attributeName="opacity" values="1;0" keyTimes="0;1" dur="1.1363636363636365s" begin="-0.6313131313131313s" repeatCount="indefinite"></animate>
  </rect>
</g><g transform="rotate(160 50 50)">
  <rect x="49" y="28.5" rx="0.63" ry="0.63" width="2" height="7" fill="#22c55e">
    <animate attributeName="opacity" values="1;0" keyTimes="0;1" dur="1.1363636363636365s" begin="-0.5681818181818182s" repeatCount="indefinite"></animate>
  </rect>
</g><g transform="rotate(180 50 50)">
  <rect x="49" y="28.5" rx="0.63" ry="0.63" width="2" height="7" fill="#22c55e">
    <animate attributeName="opacity" values="1;0" keyTimes="0;1" dur="1.1363636363636365s" begin="-0.5050505050505051s" repeatCount="indefinite"></animate>
  </rect>
</g><g transform="rotate(200 50 50)">
  <rect x="49" y="28.5" rx="0.63" ry="0.63" width="2" height="7" fill="#22c55e">
    <animate attributeName="opacity" values="1;0" keyTimes="0;1" dur="1.1363636363636365s" begin="-0.44191919191919193s" repeatCount="indefinite"></animate>
  </rect>
</g><g transform="rotate(220 50 50)">
  <rect x="49" y="28.5" rx="0.63" ry="0.63" width="2" height="7" fill="#22c55e">
    <animate attributeName="opacity" values="1;0" keyTimes="0;1" dur="1.1363636363636365s" begin="-0.3787878787878788s" repeatCount="indefinite"></animate>
  </rect>
</g><g transform="rotate(240 50 50)">
  <rect x="49" y="28.5" rx="0.63" ry="0.63" width="2" height="7" fill="#22c55e">
    <animate attributeName="opacity" values="1;0" keyTimes="0;1" dur="1.1363636363636365s" begin="-0.31565656565656564s" repeatCount="indefinite"></animate>
  </rect>
</g><g transform="rotate(260 50 50)">
  <rect x="49" y="28.5" rx="0.63" ry="0.63" width="2" height="7" fill="#22c55e">
    <animate attributeName="opacity" values="1;0" keyTimes="0;1" dur="1.1363636363636365s" begin="-0.25252525252525254s" repeatCount="indefinite"></animate>
  </rect>
</g><g transform="rotate(280 50 50)">
  <rect x="49" y="28.5" rx="0.63" ry="0.63" width="2" height="7" fill="#22c55e">
    <animate attributeName="opacity" values="1;0" keyTimes="0;1" dur="1.1363636363636365s" begin="-0.1893939393939394s" repeatCount="indefinite"></animate>
  </rect>
</g><g transform="rotate(300 50 50)">
  <rect x="49" y="28.5" rx="0.63" ry="0.63" width="2" height="7" fill="#22c55e">
    <animate attributeName="opacity" values="1;0" keyTimes="0;1" dur="1.1363636363636365s" begin="-0.12626262626262627s" repeatCount="indefinite"></animate>
  </rect>
</g><g transform="rotate(320 50 50)">
  <rect x="49" y="28.5" rx="0.63" ry="0.63" width="2" height="7" fill="#22c55e">
    <animate attributeName="opacity" values="1;0" keyTimes="0;1" dur="1.1363636363636365s" begin="-0.06313131313131314s" repeatCount="indefinite"></animate>
  </rect>
</g><g transform="rotate(340 50 50)">
  <rect x="49" y="28.5" rx="0.63" ry="0.63" width="2" height="7" fill="#22c55e">
    <animate attributeName="opacity" values="1;0" keyTimes="0;1" dur="1.1363636363636365s" begin="0s" repeatCount="indefinite"></animate>
  </rect>
</g>
<!-- [ldio] generated by https://loading.io/ --></svg>